<svg xmlns="http://www.w3.org/2000/svg" width="26" height="26" viewBox="0 0 26 26">
  <g id="Group_65" data-name="Group 65" transform="translate(-37 -50)">
    <rect id="Rectangle_204" data-name="Rectangle 204" width="26" height="26" transform="translate(37 50)" fill="rgba(255,255,255,0)"/>
    <path id="line-spacing" d="M11.833,9.666h18.33a1.833,1.833,0,0,0,0-3.666H11.833a1.833,1.833,0,0,0,0,3.666Zm18.33,5.5H11.833a1.833,1.833,0,0,0,0,3.666h18.33a1.833,1.833,0,0,0,0-3.666Zm0,9.165H11.833a1.833,1.833,0,0,0,0,3.666h18.33a1.833,1.833,0,0,0,0-3.666Z" transform="translate(29.004 46)" fill="#171717"/>
  </g>
</svg>
