<svg xmlns="http://www.w3.org/2000/svg" width="76" height="52" viewBox="0 0 76 52">
  <g id="Group_1" data-name="Group 1" transform="translate(-528.985 -413.677)">
    <path id="PS" d="M712.619,423.177l14.25-4.75-14.25-4.75-14.25,4.75v9.5l14.25,4.75v4.75l-14.25-4.75v14.25l14.25,4.75v-9.5l14.25-4.75v-14.25l-14.25,4.75Z" transform="translate(-145.634)" fill="#fff"/>
    <g id="Bungee-Regular" transform="translate(528.985 456.177)">
      <path id="M" d="M1016.245,729.047h-1.668a.386.386,0,0,1-.309-.109.509.509,0,0,1-.1-.346v-8.209a.521.521,0,0,1,.1-.349.393.393,0,0,1,.309-.106h1.8a.5.5,0,0,1,.3.087.836.836,0,0,1,.217.292l1.009,2.066a.98.98,0,0,0,.1.163.125.125,0,0,0,.105.052h.1a.126.126,0,0,0,.107-.052.971.971,0,0,0,.1-.163l1-2.066a.836.836,0,0,1,.219-.292.5.5,0,0,1,.3-.087h1.815a.393.393,0,0,1,.309.106.52.52,0,0,1,.1.349v8.209a.508.508,0,0,1-.1.346.385.385,0,0,1-.309.109h-1.725a.385.385,0,0,1-.309-.109.508.508,0,0,1-.1-.346v-4.461l-.661,1.383a.729.729,0,0,1-.241.309.6.6,0,0,1-.353.094h-.449a.606.606,0,0,1-.352-.094.746.746,0,0,1-.241-.309l-.661-1.383v4.461a.508.508,0,0,1-.1.346A.385.385,0,0,1,1016.245,729.047Z" transform="translate(-946.142 -719.737)" fill="#fff"/>
      <path id="E" d="M967.508,729.047h-5.2a.385.385,0,0,1-.309-.109.509.509,0,0,1-.1-.346v-8.209a.521.521,0,0,1,.1-.349.393.393,0,0,1,.309-.106h5.2a.392.392,0,0,1,.309.106.52.52,0,0,1,.1.349v1.482a.52.52,0,0,1-.1.349.392.392,0,0,1-.309.106h-3.093v.977H966.6a.39.39,0,0,1,.306.106.52.52,0,0,1,.1.349v1.356a.509.509,0,0,1-.1.346.383.383,0,0,1-.306.109h-2.187v1.089h3.093a.393.393,0,0,1,.309.109.521.521,0,0,1,.1.349v1.482a.508.508,0,0,1-.1.346A.385.385,0,0,1,967.508,729.047Z" transform="translate(-901.203 -719.737)" fill="#fff"/>
      <path id="T" d="M910.456,729.047h-1.815a.385.385,0,0,1-.309-.109.508.508,0,0,1-.1-.346v-6.22H906.59a.393.393,0,0,1-.309-.109.52.52,0,0,1-.1-.349v-1.531a.519.519,0,0,1,.1-.349.392.392,0,0,1,.309-.106h5.917a.392.392,0,0,1,.309.106.521.521,0,0,1,.094.349v1.531a.521.521,0,0,1-.094.349.393.393,0,0,1-.309.109h-1.648v6.22a.51.51,0,0,1-.094.346A.385.385,0,0,1,910.456,729.047Z" transform="translate(-853.296 -719.737)" fill="#fff"/>
      <path id="S" d="M860.811,729.047h-3.542a.383.383,0,0,1-.306-.109.509.509,0,0,1-.1-.346V727.11a.521.521,0,0,1,.1-.349.392.392,0,0,1,.306-.109h3.016a.249.249,0,0,0,.219-.106.456.456,0,0,0,.072-.26.551.551,0,0,0-.072-.317.288.288,0,0,0-.219-.114l-1.681-.267a2.294,2.294,0,0,1-1.261-.581,2.042,2.042,0,0,1-.477-1.521v-1.328a2.15,2.15,0,0,1,.617-1.653,2.385,2.385,0,0,1,1.7-.576h3.139a.39.39,0,0,1,.306.106.52.52,0,0,1,.1.349v1.507a.52.52,0,0,1-.1.349.392.392,0,0,1-.306.109h-2.611a.261.261,0,0,0-.226.106.449.449,0,0,0-.079.272.478.478,0,0,0,.079.28.29.29,0,0,0,.226.126l1.668.252a2.348,2.348,0,0,1,1.267.584,2.022,2.022,0,0,1,.482,1.519v1.331a2.143,2.143,0,0,1-.622,1.652A2.4,2.4,0,0,1,860.811,729.047Z" transform="translate(-810.893 -719.737)" fill="#fff"/>
      <path id="Y" d="M804.4,729.047h-1.815a.385.385,0,0,1-.309-.109.509.509,0,0,1-.1-.346v-1.623l-1.714-2.6a2.554,2.554,0,0,1-.341-.685,3.316,3.316,0,0,1-.085-.873v-2.432a.52.52,0,0,1,.1-.349.393.393,0,0,1,.309-.106h1.725a.393.393,0,0,1,.309.106.521.521,0,0,1,.1.349v2.078c0,.084,0,.173.011.265a.576.576,0,0,0,.09.267l.514.91a.491.491,0,0,0,.118.166.226.226,0,0,0,.151.05h.112a.223.223,0,0,0,.151-.05.49.49,0,0,0,.118-.166l.517-.91a.631.631,0,0,0,.09-.267c.007-.091.011-.181.011-.265v-2.078a.52.52,0,0,1,.094-.349.393.393,0,0,1,.309-.106h1.67a.393.393,0,0,1,.309.106.521.521,0,0,1,.094.349v2.432a3.109,3.109,0,0,1-.09.873,2.963,2.963,0,0,1-.335.685l-1.705,2.608v1.61a.509.509,0,0,1-.094.346A.385.385,0,0,1,804.4,729.047Z" transform="translate(-762.034 -719.737)" fill="#fff"/>
      <path id="S-2" data-name="S" d="M753.307,729.047h-3.542a.383.383,0,0,1-.306-.109.508.508,0,0,1-.1-.346V727.11a.52.52,0,0,1,.1-.349.391.391,0,0,1,.306-.109h3.017a.249.249,0,0,0,.219-.106.456.456,0,0,0,.072-.26.551.551,0,0,0-.072-.317.288.288,0,0,0-.219-.114l-1.681-.267a2.294,2.294,0,0,1-1.261-.581,2.042,2.042,0,0,1-.477-1.521v-1.328a2.15,2.15,0,0,1,.617-1.653,2.385,2.385,0,0,1,1.7-.576h3.139a.391.391,0,0,1,.307.106.52.52,0,0,1,.1.349v1.507a.521.521,0,0,1-.1.349.392.392,0,0,1-.307.109h-2.611a.261.261,0,0,0-.225.106.45.45,0,0,0-.079.272.479.479,0,0,0,.079.28.29.29,0,0,0,.225.126l1.668.252a2.348,2.348,0,0,1,1.267.584,2.022,2.022,0,0,1,.482,1.519v1.331a2.143,2.143,0,0,1-.622,1.652A2.4,2.4,0,0,1,753.307,729.047Z" transform="translate(-718.463 -719.737)" fill="#fff"/>
      <path id="F" d="M703.544,729.047h-1.736a.385.385,0,0,1-.309-.109.508.508,0,0,1-.1-.346v-8.209a.52.52,0,0,1,.1-.349.392.392,0,0,1,.309-.106h5a.392.392,0,0,1,.309.106.52.52,0,0,1,.094.349v1.507a.521.521,0,0,1-.094.349.394.394,0,0,1-.309.109h-2.857v1.316H705.9a.393.393,0,0,1,.309.109.517.517,0,0,1,.1.346v1.521a.52.52,0,0,1-.1.349.392.392,0,0,1-.309.106h-1.948v2.5a.509.509,0,0,1-.1.346A.385.385,0,0,1,703.544,729.047Z" transform="translate(-677.228 -719.737)" fill="#fff"/>
      <path id="O" d="M648.568,725.484a3.488,3.488,0,0,1-.151,1.059,1.784,1.784,0,0,1-.536.811,2.737,2.737,0,0,1-1.066.524,6.513,6.513,0,0,1-1.721.191,6.583,6.583,0,0,1-1.725-.191,2.743,2.743,0,0,1-1.07-.524,1.773,1.773,0,0,1-.539-.811,3.488,3.488,0,0,1-.151-1.059v-4.32a3.47,3.47,0,0,1,.151-1.056,1.8,1.8,0,0,1,.539-.816,2.652,2.652,0,0,1,1.07-.532,6.484,6.484,0,0,1,1.725-.191,6.415,6.415,0,0,1,1.721.191,2.646,2.646,0,0,1,1.066.532,1.811,1.811,0,0,1,.536.816,3.47,3.47,0,0,1,.151,1.056Zm-4.415-.455a.591.591,0,0,0,.169.426,1.838,1.838,0,0,0,1.548,0,.589.589,0,0,0,.166-.426v-3.407a.568.568,0,0,0-.166-.413,1.838,1.838,0,0,0-1.548,0,.57.57,0,0,0-.169.413Z" transform="translate(-625.818 -718.569)" fill="#fff"/>
      <path id="R" d="M585.631,729.047h-1.725a.386.386,0,0,1-.309-.109.509.509,0,0,1-.1-.346v-8.209a.521.521,0,0,1,.1-.349.393.393,0,0,1,.309-.106h3.732a2.13,2.13,0,0,1,1.731.589,2.346,2.346,0,0,1,.475,1.526v.581a2.559,2.559,0,0,1-.14.905.933.933,0,0,1-.488.539,1.411,1.411,0,0,1,.981.557,2.016,2.016,0,0,1,.377,1.279v2.687a.509.509,0,0,1-.1.346.383.383,0,0,1-.306.109h-1.738a.385.385,0,0,1-.309-.109.509.509,0,0,1-.094-.346v-1.94a.71.71,0,0,0-.1-.411.378.378,0,0,0-.331-.134h-1.569v2.484a.509.509,0,0,1-.094.346A.385.385,0,0,1,585.631,729.047Zm.4-6.841v1.623h.84a.417.417,0,0,0,.394-.173.836.836,0,0,0,.1-.423V722.8a.845.845,0,0,0-.1-.425.421.421,0,0,0-.394-.171Z" transform="translate(-575.857 -719.737)" fill="#fff"/>
      <path id="P" d="M531.126,729.047H529.39a.385.385,0,0,1-.309-.109.508.508,0,0,1-.1-.346v-8.209a.52.52,0,0,1,.1-.349.392.392,0,0,1,.309-.106h3.428a2.6,2.6,0,0,1,2.086.683,2.735,2.735,0,0,1,.56,1.786v1.62a2.735,2.735,0,0,1-.56,1.786,2.591,2.591,0,0,1-2.086.685h-1.287v2.1a.508.508,0,0,1-.1.346A.385.385,0,0,1,531.126,729.047Zm.381-6.751v1.912h1.009a.436.436,0,0,0,.427-.19.92.92,0,0,0,.1-.43v-.671a.92.92,0,0,0-.1-.43.441.441,0,0,0-.427-.191Z" transform="translate(-528.985 -719.737)" fill="#fff"/>
    </g>
  </g>
</svg>
