<svg xmlns="http://www.w3.org/2000/svg" width="50" height="50" viewBox="0 0 50 50">
  <g id="Group_451" data-name="Group 451" transform="translate(-284.301 -672.301)" opacity="0.5">
    <rect id="Rectangle_272" data-name="Rectangle 272" width="50" height="50" transform="translate(284.301 672.301)" fill="rgba(255,255,255,0)"/>
    <path id="location-point" d="M33.378,7.01a17.761,17.761,0,0,0-24.74,0,16.87,16.87,0,0,0,0,24.218L19.5,41.884a2.093,2.093,0,0,0,2.928,0L33.378,31.127a16.8,16.8,0,0,0,0-24.117ZM30.43,28.241,21.008,37.5l-9.422-9.263a12.844,12.844,0,0,1,.006-18.435,13.522,13.522,0,0,1,18.832,0A12.844,12.844,0,0,1,30.43,28.241ZM14.823,12.924a8.589,8.589,0,0,0,0,12.311,9.025,9.025,0,0,0,9.642,1.909A8.7,8.7,0,0,0,30,19.18a8.466,8.466,0,0,0-2.6-6.155,9,9,0,0,0-12.576-.1Zm9.669,9.445a4.881,4.881,0,0,1-6.07.623,4.648,4.648,0,0,1-1.795-5.711,4.825,4.825,0,0,1,5.379-2.824,4.729,4.729,0,0,1,3.868,4.622,4.657,4.657,0,0,1-1.484,3.29Z" transform="translate(288.303 675.063)" fill="#e4190b"/>
  </g>
</svg>
