<svg id="Group_223" data-name="Group 223" xmlns="http://www.w3.org/2000/svg" width="56" height="56" viewBox="0 0 56 56">
  <rect id="Rectangle_262" data-name="Rectangle 262" width="56" height="56" rx="4" fill="#fff"/>
  <g id="Group_203" data-name="Group 203" transform="translate(19 19)">
    <rect id="Rectangle_256" data-name="Rectangle 256" width="18" height="18" fill="rgba(255,255,255,0)"/>
    <path id="Arrow_-_Left_2" data-name="Arrow - Left 2" d="M.219,13.789a.7.7,0,0,1-.072-.938l.072-.081L6.2,7,.219,1.229A.7.7,0,0,1,.146.292L.219.211A.767.767,0,0,1,1.19.141l.084.07,6.507,6.28a.7.7,0,0,1,.072.938l-.072.081-6.507,6.28A.766.766,0,0,1,.219,13.789Z" transform="translate(5 2)" fill="#171717"/>
  </g>
</svg>
